General
Complete name                    : Hard Candy.mkv
Format                           : Matroska
File size                        : 1.13 GiB
Duration                         : 1h 39mn
Overall bit rate                 : 1 612 Kbps
Writing application              : HandBrake 0.9.4

Video

Format                           : AVC
Duration                         : 1h 39mn
Bit rate                         : 1 140 Kbps
Width                            : 710 pixels
Height                           : 434 pixels
Display aspect ratio             : 2.35:1
Stream size                      : 809 MiB (70%)
Writing library                  : x264 core 79


Audio

Format                           : AC-3
Codec ID                         : A_AC3
Duration                         : 1h 39mn
Bit rate                         : 448 Kbps
Channel(s)                       : 6 channels
Channel positions                : Front: L C R, Side: L R, LFE
Sampling rate                    : 48.0 KHz
Stream size                      : 320 MiB (28%)
Language                         : English

Text #1
Language                         : Danish

Text #2
Language                         : Swedish

Text #3
Language                         : Norwegian

Text #4
Language                         : Finnish

Menu
00:00:00.000                     : Chapter 1
00:02:03.426                     : Chapter 2


A mature 14-year old girl meets a charming 32-year old photographer on the Internet. Suspecting that he is a pedophile, she goes to his home in an attempt to expose him. 